<svg width="132" height="40" viewBox="0 0 132 40" fill="none" xmlns="http://www.w3.org/2000/svg">
<path d="M86.3038 10.8101C86.3038 13.7952 83.8838 16.2152 80.8987 16.2152C77.9136 16.2152 75.4937 13.7952 75.4937 10.8101C75.4937 7.82496 77.9136 5.40503 80.8987 5.40503C83.8838 5.40503 86.3038 7.82496 86.3038 10.8101Z" fill="#FF9832"/>
<line x1="79.3273" y1="16.4014" x2="75.5163" y2="31.8445" stroke="#FF9832" stroke-width="8"/>
<path d="M77.8301 20.1318L83.9677 23.2047" stroke="#FF9832" stroke-width="3"/>
<path d="M83.2153 23.4166L87.8482 20.8481" stroke="#FF9832" stroke-width="2"/>
<path d="M77.8325 30.886L83.7848 32.5582" stroke="#FF9832" stroke-width="4"/>
<line x1="83.1709" y1="31.6582" x2="83.1709" y2="39.3797" stroke="#FF9832" stroke-width="3"/>
<path d="M72.4053 35.519L75.3548 29.3418" stroke="#FF9832" stroke-width="4"/>
<line x1="73.6491" y1="35.2959" x2="67.7102" y2="38.4879" stroke="#FF9832" stroke-width="3"/>
<line x1="89.981" y1="39.3798" x2="89.981" y2="1.52588e-05" stroke="#FF9832" stroke-width="5"/>
<line x1="94.7381" y1="5.87451" x2="110.181" y2="38.3049" stroke="#FF9832" stroke-width="5"/>
<line x1="103.369" y1="15.0852" x2="129.623" y2="37.4776" stroke="#FF9832" stroke-width="5"/>
<path d="M9.548 20.904C9.548 22.024 9.33333 22.962 8.904 23.718C8.47467 24.474 7.84933 25.0433 7.028 25.426C6.216 25.8087 5.236 26 4.088 26H1.26V16.004H4.396C5.44133 16.004 6.34667 16.1907 7.112 16.564C7.88667 16.9373 8.484 17.488 8.904 18.216C9.33333 18.9347 9.548 19.8307 9.548 20.904ZM7.35 20.96C7.35 20.2227 7.24267 19.616 7.028 19.14C6.81333 18.664 6.49133 18.314 6.062 18.09C5.642 17.8567 5.124 17.74 4.508 17.74H3.374V24.25H4.284C5.32 24.25 6.09 23.9747 6.594 23.424C7.098 22.8733 7.35 22.052 7.35 20.96ZM14.9413 18.356V26H12.8553V18.356H14.9413ZM13.9053 15.36C14.2133 15.36 14.4793 15.4347 14.7033 15.584C14.9273 15.724 15.0393 15.99 15.0393 16.382C15.0393 16.7647 14.9273 17.0307 14.7033 17.18C14.4793 17.3293 14.2133 17.404 13.9053 17.404C13.5879 17.404 13.3173 17.3293 13.0933 17.18C12.8786 17.0307 12.7713 16.7647 12.7713 16.382C12.7713 15.99 12.8786 15.724 13.0933 15.584C13.3173 15.4347 13.5879 15.36 13.9053 15.36ZM22.7489 19.924H20.9429V26H18.8569V19.924H17.7089V18.916L18.8569 18.356V17.796C18.8569 17.1427 18.9642 16.6387 19.1789 16.284C19.4029 15.92 19.7156 15.6633 20.1169 15.514C20.5276 15.3647 21.0082 15.29 21.5589 15.29C21.9696 15.29 22.3382 15.3227 22.6649 15.388C23.0009 15.4533 23.2716 15.528 23.4769 15.612L22.9449 17.138C22.7862 17.0913 22.6136 17.0493 22.4269 17.012C22.2402 16.9653 22.0256 16.942 21.7829 16.942C21.4936 16.942 21.2789 17.0307 21.1389 17.208C21.0082 17.3853 20.9429 17.6093 20.9429 17.88V18.356H22.7489V19.924ZM28.1669 19.924H26.3609V26H24.2749V19.924H23.1269V18.916L24.2749 18.356V17.796C24.2749 17.1427 24.3822 16.6387 24.5969 16.284C24.8209 15.92 25.1336 15.6633 25.5349 15.514C25.9456 15.3647 26.4262 15.29 26.9769 15.29C27.3876 15.29 27.7562 15.3227 28.0829 15.388C28.4189 15.4533 28.6896 15.528 28.8949 15.612L28.3629 17.138C28.2042 17.0913 28.0316 17.0493 27.8449 17.012C27.6582 16.9653 27.4436 16.942 27.2009 16.942C26.9116 16.942 26.6969 17.0307 26.5569 17.208C26.4262 17.3853 26.3609 17.6093 26.3609 17.88V18.356H28.1669V19.924ZM31.4429 18.356V26H29.3569V18.356H31.4429ZM30.4069 15.36C30.7149 15.36 30.9809 15.4347 31.2049 15.584C31.4289 15.724 31.5409 15.99 31.5409 16.382C31.5409 16.7647 31.4289 17.0307 31.2049 17.18C30.9809 17.3293 30.7149 17.404 30.4069 17.404C30.0896 17.404 29.8189 17.3293 29.5949 17.18C29.3802 17.0307 29.2729 16.7647 29.2729 16.382C29.2729 15.99 29.3802 15.724 29.5949 15.584C29.8189 15.4347 30.0896 15.36 30.4069 15.36ZM38.1363 26.14C37.3803 26.14 36.7363 26.0047 36.2043 25.734C35.6723 25.454 35.2663 25.0247 34.9863 24.446C34.7063 23.8673 34.5663 23.1253 34.5663 22.22C34.5663 21.2867 34.725 20.526 35.0423 19.938C35.3597 19.35 35.7983 18.916 36.3583 18.636C36.9277 18.356 37.581 18.216 38.3183 18.216C38.841 18.216 39.2937 18.2673 39.6763 18.37C40.0683 18.4727 40.409 18.594 40.6983 18.734L40.0823 20.344C39.7557 20.2133 39.4477 20.106 39.1583 20.022C38.8783 19.938 38.5983 19.896 38.3183 19.896C37.9543 19.896 37.651 19.9847 37.4083 20.162C37.1657 20.33 36.9837 20.5867 36.8623 20.932C36.7503 21.268 36.6943 21.6927 36.6943 22.206C36.6943 22.71 36.755 23.13 36.8763 23.466C37.007 23.7927 37.1937 24.04 37.4363 24.208C37.679 24.3667 37.973 24.446 38.3183 24.446C38.757 24.446 39.1443 24.39 39.4803 24.278C39.8163 24.1567 40.143 23.9933 40.4603 23.788V25.566C40.143 25.7713 39.807 25.916 39.4523 26C39.107 26.0933 38.6683 26.14 38.1363 26.14ZM45.7057 18.356V26H43.6197V18.356H45.7057ZM44.6697 15.36C44.9777 15.36 45.2437 15.4347 45.4677 15.584C45.6917 15.724 45.8037 15.99 45.8037 16.382C45.8037 16.7647 45.6917 17.0307 45.4677 17.18C45.2437 17.3293 44.9777 17.404 44.6697 17.404C44.3524 17.404 44.0817 17.3293 43.8577 17.18C43.6431 17.0307 43.5357 16.7647 43.5357 16.382C43.5357 15.99 43.6431 15.724 43.8577 15.584C44.0817 15.4347 44.3524 15.36 44.6697 15.36ZM51.3714 26H49.2854V15.36H51.3714V26ZM58.101 18.216C58.8103 18.216 59.417 18.3513 59.921 18.622C60.4343 18.8927 60.831 19.2847 61.111 19.798C61.391 20.3113 61.531 20.9413 61.531 21.688V22.696H56.603C56.6217 23.284 56.7943 23.746 57.121 24.082C57.457 24.418 57.919 24.586 58.507 24.586C59.0017 24.586 59.4497 24.5393 59.851 24.446C60.2523 24.3433 60.6677 24.1893 61.097 23.984V25.594C60.7237 25.7807 60.327 25.916 59.907 26C59.4963 26.0933 58.997 26.14 58.409 26.14C57.6437 26.14 56.967 26 56.379 25.72C55.791 25.4307 55.329 24.9967 54.993 24.418C54.657 23.8393 54.489 23.1113 54.489 22.234C54.489 21.338 54.6383 20.596 54.937 20.008C55.245 19.4107 55.6697 18.9627 56.211 18.664C56.7523 18.3653 57.3823 18.216 58.101 18.216ZM58.115 19.7C57.7137 19.7 57.3777 19.8307 57.107 20.092C56.8457 20.3533 56.6917 20.7593 56.645 21.31H59.571C59.571 21.002 59.515 20.7267 59.403 20.484C59.3003 20.2413 59.1417 20.05 58.927 19.91C58.7123 19.77 58.4417 19.7 58.115 19.7Z" fill="#FF9832"/>
</svg>
