<svg width="66" height="40" viewBox="0 0 66 40" fill="none" xmlns="http://www.w3.org/2000/svg">
<path d="M20.3037 10.8221C20.3045 13.8072 17.8853 16.2278 14.9002 16.2287C11.915 16.2295 9.4944 13.8103 9.49355 10.8252C9.4927 7.84003 11.9119 5.41941 14.8971 5.41856C17.8822 5.4177 20.3028 7.83694 20.3037 10.8221Z" fill="#CF6D12"/>
<line x1="13.3288" y1="16.4153" x2="9.52217" y2="31.8595" stroke="#CF6D12" stroke-width="8"/>
<path d="M11.8325 20.1461L17.971 23.2173" stroke="#CF6D12" stroke-width="3"/>
<path d="M17.2186 23.4294L21.8507 20.8596" stroke="#CF6D12" stroke-width="2"/>
<path d="M11.8377 30.9004L17.7905 32.5709" stroke="#CF6D12" stroke-width="4"/>
<line x1="17.1765" y1="31.671" x2="17.1787" y2="39.3925" stroke="#CF6D12" stroke-width="3"/>
<path d="M6.41199 35.5349L9.35971 29.3568" stroke="#CF6D12" stroke-width="4"/>
<line x1="7.65576" y1="35.3115" x2="1.71773" y2="38.5052" stroke="#CF6D12" stroke-width="3"/>
<line x1="23.989" y1="39.3906" x2="23.9777" y2="0.0108647" stroke="#CF6D12" stroke-width="5"/>
<line x1="28.7366" y1="5.88405" x2="44.1889" y2="38.31" stroke="#EFF2FF" stroke-opacity="0.5" stroke-width="5"/>
<line x1="37.3703" y1="15.0923" x2="63.6299" y2="37.4772" stroke="#EFF2FF" stroke-opacity="0.54" stroke-width="5"/>
</svg>
