<svg width="113" height="40" viewBox="0 0 113 40" fill="none" xmlns="http://www.w3.org/2000/svg">
<path d="M67.3039 10.8221C67.3047 13.8072 64.8855 16.2278 61.9003 16.2287C58.9152 16.2295 56.4946 13.8103 56.4937 10.8252C56.4929 7.84003 58.9121 5.41941 61.8973 5.41856C64.8824 5.4177 67.303 7.83694 67.3039 10.8221Z" fill="#FF9832"/>
<line x1="60.3286" y1="16.4153" x2="56.5219" y2="31.8595" stroke="#FF9832" stroke-width="8"/>
<path d="M58.8325 20.1461L64.971 23.2173" stroke="#FF9832" stroke-width="3"/>
<path d="M64.2188 23.4294L68.8509 20.8596" stroke="#FF9832" stroke-width="2"/>
<path d="M58.8379 30.9004L64.7907 32.5709" stroke="#FF9832" stroke-width="4"/>
<line x1="64.1763" y1="31.671" x2="64.1785" y2="39.3925" stroke="#FF9832" stroke-width="3"/>
<path d="M53.4121 35.5349L56.3598 29.3568" stroke="#FF9832" stroke-width="4"/>
<line x1="54.6558" y1="35.3115" x2="48.7178" y2="38.5052" stroke="#FF9832" stroke-width="3"/>
<line x1="70.9888" y1="39.3906" x2="70.9775" y2="0.0108647" stroke="#FF9832" stroke-width="5"/>
<line x1="75.7363" y1="5.88405" x2="91.1887" y2="38.31" stroke="#EFF2FF" stroke-opacity="0.5" stroke-width="5"/>
<line x1="84.3704" y1="15.0923" x2="110.63" y2="37.4772" stroke="#EFF2FF" stroke-opacity="0.54" stroke-width="5"/>
<path d="M3.35029 26.0302L1.26429 26.0308L1.26143 16.0348L6.98743 16.0332L6.98793 17.7692L3.34793 17.7702L3.34867 20.3462L6.73667 20.3453L6.73716 22.0813L3.34916 22.0822L3.35029 26.0302ZM13.3137 18.2294C14.3403 18.2291 15.1244 18.4529 15.6658 18.9007C16.2166 19.3392 16.4922 20.0158 16.4924 20.9305L16.4939 26.0265L15.0379 26.0269L14.6316 24.991L14.5756 24.991C14.361 25.2617 14.1371 25.4858 13.9038 25.6632C13.6798 25.8406 13.4185 25.9667 13.1199 26.0414C12.8306 26.1255 12.4713 26.1676 12.0419 26.1677C11.5939 26.1679 11.1879 26.084 10.8239 25.9161C10.4691 25.7389 10.1891 25.4729 9.98362 25.1183C9.77819 24.7544 9.67539 24.2971 9.67523 23.7464C9.675 22.9344 9.95949 22.337 10.5287 21.9542C11.0979 21.562 11.9519 21.3471 13.0905 21.3094L14.4205 21.2671L14.4204 20.9311C14.4203 20.5297 14.3129 20.2358 14.0982 20.0492C13.8928 19.8625 13.6034 19.7693 13.2301 19.7694C12.8568 19.7695 12.4928 19.8256 12.1381 19.9377C11.7835 20.0405 11.4289 20.1713 11.0743 20.33L10.3878 18.9162C10.7985 18.7014 11.2511 18.5333 11.7457 18.4118C12.2497 18.2904 12.7723 18.2295 13.3137 18.2294ZM13.6089 22.5133C12.9369 22.5322 12.4703 22.6536 12.209 22.8777C11.9477 23.1018 11.8171 23.3958 11.8172 23.7598C11.8173 24.0771 11.9107 24.3058 12.0974 24.4457C12.2841 24.5763 12.5268 24.6416 12.8255 24.6415C13.2735 24.6414 13.6515 24.5106 13.9594 24.2492C14.2673 23.9784 14.4212 23.6004 14.4211 23.1151L14.4209 22.4851L13.6089 22.5133ZM23.1371 26.1646C22.3811 26.1648 21.7371 26.0296 21.205 25.7591C20.6729 25.4793 20.2668 25.0501 19.9867 24.4715C19.7065 23.8929 19.5663 23.1509 19.566 22.2456C19.5658 21.3123 19.7242 20.5515 20.0414 19.9635C20.3585 19.3754 20.7971 18.9412 21.357 18.6611C21.9262 18.3809 22.5795 18.2407 23.3169 18.2405C23.8395 18.2404 24.2922 18.2916 24.6749 18.3941C25.0669 18.4967 25.4076 18.6179 25.697 18.7578L25.0815 20.368C24.7548 20.2374 24.4467 20.1302 24.1574 20.0463C23.8774 19.9624 23.5974 19.9204 23.3174 19.9205C22.9534 19.9206 22.65 20.0094 22.4074 20.1868C22.1648 20.3548 21.9829 20.6116 21.8617 20.9569C21.7497 21.293 21.6939 21.7176 21.694 22.231C21.6942 22.735 21.7549 23.155 21.8764 23.4909C22.0071 23.8176 22.1939 24.0648 22.4366 24.2328C22.6793 24.3914 22.9733 24.4706 23.3187 24.4705C23.7573 24.4704 24.1446 24.4143 24.4806 24.3022C24.8166 24.1808 25.1432 24.0173 25.4605 23.8119L25.461 25.5899C25.1437 25.7953 24.8077 25.9401 24.4531 26.0242C24.1078 26.1176 23.6691 26.1644 23.1371 26.1646ZM30.7043 18.3784L30.7065 26.0224L28.6205 26.023L28.6183 18.379L30.7043 18.3784ZM29.6675 15.3827C29.9755 15.3826 30.2415 15.4572 30.4655 15.6065C30.6896 15.7464 30.8016 16.0124 30.8018 16.4044C30.8019 16.787 30.6899 17.0531 30.466 17.2025C30.242 17.3519 29.976 17.4266 29.6681 17.4267C29.3507 17.4268 29.08 17.3522 28.856 17.2029C28.6413 17.0537 28.5339 16.7877 28.5338 16.405C28.5336 16.013 28.6409 15.747 28.8555 15.6069C29.0795 15.4575 29.3501 15.3828 29.6675 15.3827ZM36.3721 26.0208L34.2861 26.0214L34.2831 15.3814L36.3691 15.3808L36.3721 26.0208ZM43.0995 18.2349C43.8089 18.2347 44.4156 18.3698 44.9196 18.6403C45.4331 18.9109 45.8298 19.3027 46.11 19.816C46.3901 20.3293 46.5303 20.9592 46.5305 21.7059L46.5308 22.7139L41.6028 22.7153C41.6216 23.3033 41.7944 23.7652 42.1212 24.1011C42.4573 24.437 42.9194 24.6049 43.5074 24.6047C44.002 24.6046 44.45 24.5578 44.8513 24.4644C45.2526 24.3616 45.6679 24.2075 46.0972 24.002L46.0976 25.612C45.7244 25.7988 45.3277 25.9342 44.9078 26.0183C44.4971 26.1118 43.9978 26.1586 43.4098 26.1588C42.6445 26.159 41.9678 26.0192 41.3797 25.7394C40.7916 25.4502 40.3295 25.0163 39.9933 24.4377C39.6571 23.8592 39.4889 23.1312 39.4887 22.2539C39.4884 21.3579 39.6375 20.6158 39.936 20.0278C40.2439 19.4303 40.6684 18.9822 41.2097 18.6834C41.7509 18.3846 42.3809 18.2351 43.0995 18.2349ZM43.114 19.7189C42.7126 19.719 42.3767 19.8497 42.1061 20.1111C41.8448 20.3726 41.6909 20.7786 41.6444 21.3293L44.5704 21.3284C44.5703 21.0204 44.5142 20.7451 44.4022 20.5025C44.2994 20.2598 44.1407 20.0686 43.926 19.9286C43.7113 19.7887 43.4406 19.7188 43.114 19.7189Z" fill="#FF9832"/>
</svg>
