<svg width="410" height="111" viewBox="0 0 410 111" fill="none" xmlns="http://www.w3.org/2000/svg">
<path fill-rule="evenodd" clip-rule="evenodd" d="M301.163 110.032C308.128 109.74 314.119 108.513 319.138 106.35C325.038 103.75 329.538 100.1 332.638 95.4C334.941 91.9082 336.389 87.9749 336.981 83.6H314.508C314.242 84.3748 313.886 85.1081 313.438 85.8C312.438 87.5 310.788 88.85 308.488 89.85C306.749 90.6405 304.541 91.1185 301.865 91.2841L301.163 110.032ZM267.77 82.6C267.693 82.5667 267.615 82.5334 267.538 82.5V82.6H267.77ZM211.598 82.6V70.5H221.348C229.148 70.5 235.698 69.55 240.998 67.65C246.298 65.75 250.548 63.15 253.748 59.85C257.048 56.45 259.398 52.65 260.798 48.45C262.198 44.15 262.898 39.65 262.898 34.95C262.898 32.3605 262.7 29.9105 262.303 27.6H238.348C239.415 29.7848 239.948 32.4848 239.948 35.7C239.948 39.5 239.098 42.6 237.398 45C235.698 47.4 233.298 49.15 230.198 50.25C227.098 51.35 223.398 51.9 219.098 51.9H211.598V27.6H201.392L203.367 82.6H211.598ZM203.402 83.6H211.598V108.6H204.3L203.402 83.6ZM197.311 82.6L199.448 27.6H188.948V82.6H197.311ZM188.948 83.6H197.272L196.3 108.6H188.948V83.6ZM148.895 82.6V66.9L170.258 27.6H146.767L140.684 39.604L138.476 82.6H148.895ZM138.425 83.6H148.895V108.6H137.141L138.425 83.6ZM135.956 83.6L137.141 108.6H126.395V83.6H135.956ZM135.908 82.6L133.791 37.9433L128.584 27.6H104.871L126.395 67.65V82.6H135.908ZM87.9 82.6V48.45H45.45V67.35H65.7V82.6H87.9ZM31.8575 83.6C32.8893 84.7368 34.0202 85.7701 35.25 86.7C39.35 89.7 44.7 91.2 51.3 91.2C53.5 91.2 55.4 91.15 57 91.05C58.7 90.85 60.25 90.65 61.65 90.45C63.05 90.15 64.4 89.9 65.7 89.7V83.6H87.9V103.95C82.3 105.85 76.45 107.35 70.35 108.45C64.35 109.55 57.5 110.1 49.8 110.1C39.2 110.1 30.15 108 22.65 103.8C15.25 99.6 9.6 93.4 5.7 85.2C5.45646 84.6745 5.22073 84.1411 4.9928 83.6H31.8575ZM30.997 82.6C28.9995 80.1507 27.4172 77.2673 26.25 73.95C24.35 68.55 23.4 62.35 23.4 55.35C23.4 47.95 24.7 41.55 27.3 36.15C28.92 32.85 30.918 30 33.294 27.6H5.55204C1.85068 35.4088 0 44.5088 0 54.9C0 65.6613 1.528 74.8947 4.584 82.6H30.997ZM267.538 83.6H270.13C274.413 85.387 278.798 87.0704 283.288 88.65C288.788 90.45 294.238 91.35 299.638 91.35C299.921 91.35 300.2 91.3471 300.475 91.3412L301.122 110.034C300.05 110.078 298.956 110.1 297.838 110.1C294.138 110.1 290.488 109.85 286.888 109.35C283.388 108.85 279.988 108.15 276.688 107.25C273.488 106.25 270.438 105.05 267.538 103.65V83.6ZM314.794 82.6C314.99 81.7611 315.088 80.8778 315.088 79.95C315.088 77.25 314.138 74.95 312.238 73.05C310.438 71.15 307.988 69.4 304.888 67.8C304.209 67.4278 303.509 67.0509 302.787 66.6692L303.672 43.0485C305.888 44.1833 308.393 45.4338 311.188 46.8C316.688 49.4 321.338 52.1 325.138 54.9C329.038 57.7 332.038 61 334.138 64.8C336.238 68.6 337.288 73.3 337.288 78.9C337.288 80.1656 337.225 81.399 337.1 82.6H314.794ZM347.755 83.6V108.6H355.3L356.583 83.6H347.755ZM356.635 82.6H347.755V27.6H359.459L356.635 82.6ZM362.067 82.6L359.459 27.6H370.405V43.65H406.705V62.25H370.405V82.6H362.067ZM362.114 83.6L363.3 108.6H409.405V89.85H370.405V83.6H362.114ZM299.564 65.0046L298.713 40.4197C296.318 39.0333 294.476 37.6101 293.188 36.15C291.688 34.35 290.938 32.2 290.938 29.7C290.938 28.9667 290.993 28.2667 291.105 27.6H268.838C268.771 28.5281 268.738 29.4781 268.738 30.45C268.738 35.35 269.588 39.55 271.288 43.05C272.988 46.55 275.138 49.55 277.738 52.05C280.438 54.45 283.238 56.5 286.138 58.2C289.038 59.8 291.738 61.2 294.238 62.4C296.112 63.2901 297.887 64.1583 299.564 65.0046ZM268.924 26.6H291.32C291.569 25.6596 291.942 24.793 292.438 24C293.538 22.4 295.088 21.15 297.088 20.25C297.384 20.1168 297.688 19.9935 298.002 19.8801L297.33 0.477552C293.066 1.0333 289.185 2.07412 285.688 3.6C280.288 6 276.088 9.5 273.088 14.1C270.788 17.6691 269.4 21.8357 268.924 26.6ZM262.117 26.6H237.8C237.194 25.6097 236.46 24.743 235.598 24C232.698 21.4 228.148 20.1 221.948 20.1H211.598V26.6H201.356L200.459 1.60001L199.487 26.6H188.948V1.5H223.148C236.948 1.5 246.998 4.5 253.298 10.5C257.873 14.7171 260.813 20.0838 262.117 26.6ZM170.801 26.6L184.445 1.5H159.995L147.274 26.6H170.801ZM128.08 26.6L115.445 1.5H90.8449L104.334 26.6H128.08ZM34.3343 26.6C35.6358 25.4098 37.041 24.3431 38.55 23.4C43.45 20.4 49.2 18.9 55.8 18.9C60.4 18.9 64.8 19.45 69 20.55C73.2 21.65 76.95 23.05 80.25 24.75L87.75 6.60001C83.25 4.6 78.25 3 72.75 1.8C67.25 0.600002 61.65 0 55.95 0C43.95 0 33.8 2.25 25.5 6.75C17.2 11.25 10.85 17.6 6.45 25.8C6.31098 26.0651 6.17421 26.3318 6.03969 26.6H34.3343ZM305.285 0.000422468L304.577 18.9009C308.576 18.9262 312.48 19.4759 316.288 20.55C320.188 21.65 324.588 23.2 329.488 25.2L336.838 7.5C331.338 5.1 326.038 3.25 320.938 1.95C316.012 0.669136 310.794 0.0192756 305.285 0.000422468ZM370.405 26.6V20.1H409.405V1.5H347.755V26.6H370.405Z" fill="#CF6D12"/>
</svg>
