<svg width="325" height="136" viewBox="0 0 325 136" fill="none" xmlns="http://www.w3.org/2000/svg">
<path d="M37.1 66.9H65.4V103.9C61.6667 105.167 57.7667 106.167 53.7 106.9C49.7 107.633 45.1333 108 40 108C32.9333 108 26.9 106.6 21.9 103.8C16.9667 101 13.2 96.8667 10.6 91.4C8.06667 85.9333 6.8 79.2 6.8 71.2C6.8 63.7333 8.23333 57.2667 11.1 51.8C14.0333 46.3333 18.2667 42.1 23.8 39.1C29.3333 36.1 36.1 34.6 44.1 34.6C47.9 34.6 51.6333 35 55.3 35.8C58.9667 36.6 62.3 37.6667 65.3 39L60.3 51.1C58.1 49.9667 55.6 49.0333 52.8 48.3C50 47.5667 47.0667 47.2 44 47.2C39.6 47.2 35.7667 48.2 32.5 50.2C29.3 52.2 26.8 55.0333 25 58.7C23.2667 62.3 22.4 66.5667 22.4 71.5C22.4 76.1667 23.0333 80.3 24.3 83.9C25.5667 87.5 27.5667 90.3333 30.3 92.4C33.0333 94.4 36.6 95.4 41 95.4C42.4667 95.4 43.7333 95.3667 44.8 95.3C45.9333 95.1667 46.9667 95.0333 47.9 94.9C48.8333 94.7 49.7333 94.5333 50.6 94.4V79.5H37.1V66.9ZM104.563 65L119.463 35.6H135.763L112.063 79.2V107H97.0633V79.7L73.3633 35.6H89.7633L104.563 65ZM167.566 35.6C176.766 35.6 183.466 37.6 187.666 41.6C191.932 45.5333 194.066 50.9667 194.066 57.9C194.066 61.0333 193.599 64.0333 192.666 66.9C191.732 69.7 190.166 72.2333 187.966 74.5C185.832 76.7 182.999 78.4333 179.466 79.7C175.932 80.9667 171.566 81.6 166.366 81.6H159.866V107H144.766V35.6H167.566ZM166.766 48H159.866V69.2H164.866C167.732 69.2 170.199 68.8333 172.266 68.1C174.332 67.3667 175.932 66.2 177.066 64.6C178.199 63 178.766 60.9333 178.766 58.4C178.766 54.8667 177.799 52.2667 175.866 50.6C173.932 48.8667 170.899 48 166.766 48ZM249.659 87.2C249.659 91.4 248.625 95.0667 246.559 98.2C244.492 101.333 241.492 103.767 237.559 105.5C233.692 107.167 228.959 108 223.359 108C220.892 108 218.459 107.833 216.059 107.5C213.725 107.167 211.459 106.7 209.259 106.1C207.125 105.433 205.092 104.633 203.159 103.7V89.6C206.559 91.0667 210.059 92.4333 213.659 93.7C217.325 94.9 220.959 95.5 224.559 95.5C227.025 95.5 228.992 95.1667 230.459 94.5C231.992 93.8333 233.092 92.9333 233.759 91.8C234.492 90.6667 234.859 89.3667 234.859 87.9C234.859 86.1 234.225 84.5667 232.959 83.3C231.759 82.0333 230.125 80.8667 228.059 79.8C225.992 78.6667 223.625 77.4667 220.959 76.2C219.292 75.4 217.492 74.4667 215.559 73.4C213.625 72.2667 211.759 70.9 209.959 69.3C208.225 67.6333 206.792 65.6333 205.659 63.3C204.525 60.9667 203.959 58.1667 203.959 54.9C203.959 50.6333 204.925 47 206.859 44C208.859 40.9333 211.659 38.6 215.259 37C218.925 35.4 223.225 34.6 228.159 34.6C231.892 34.6 235.425 35.0333 238.759 35.9C242.159 36.7667 245.692 38 249.359 39.6L244.459 51.4C241.192 50.0667 238.259 49.0333 235.659 48.3C233.059 47.5667 230.392 47.2 227.659 47.2C225.792 47.2 224.192 47.5 222.859 48.1C221.525 48.7 220.492 49.5333 219.759 50.6C219.092 51.6667 218.759 52.9333 218.759 54.4C218.759 56.0667 219.259 57.5 220.259 58.7C221.259 59.8333 222.759 60.9333 224.759 62C226.759 63.0667 229.259 64.3333 232.259 65.8C235.925 67.5333 239.025 69.3333 241.559 71.2C244.159 73.0667 246.159 75.2667 247.559 77.8C248.959 80.3333 249.659 83.4667 249.659 87.2ZM303.737 107H262.637V35.6H303.737V48H277.737V63.7H301.937V76.1H277.737V94.5H303.737V107Z" fill="#CF6D12"/>
<path d="M272.123 57.017L275.517 106.978L269.272 107.012L272.123 57.017Z" fill="#0A2380"/>
<path d="M224.123 107.063L221.098 34.2296L227.344 34.238L224.123 107.063Z" fill="#0A2380"/>
<path d="M152.511 35.5367L155.164 107.083L148.945 107.043L152.511 35.5367Z" fill="#0A2380"/>
<line x1="1" y1="84.5" x2="324.006" y2="84.5" stroke="#0A2380"/>
<path d="M104.784 106.565L102.014 57C103.781 67.5747 104.987 67.8842 107.581 57.0015L104.784 106.565Z" fill="#0A2380"/>
<line x1="0.996826" y1="56.5" x2="324.003" y2="56.5" stroke="#0A2380"/>
</svg>
