<svg width="65" height="40" viewBox="0 0 65 40" fill="none" xmlns="http://www.w3.org/2000/svg">
<path d="M19.3038 10.8101C19.3038 13.7952 16.8838 16.2152 13.8987 16.2152C10.9136 16.2152 8.49365 13.7952 8.49365 10.8101C8.49365 7.82496 10.9136 5.40503 13.8987 5.40503C16.8838 5.40503 19.3038 7.82496 19.3038 10.8101Z" fill="#CF6D12"/>
<line x1="12.3273" y1="16.4014" x2="8.51625" y2="31.8445" stroke="#CF6D12" stroke-width="8"/>
<path d="M10.8301 20.1318L16.9677 23.2047" stroke="#CF6D12" stroke-width="3"/>
<path d="M16.2153 23.4166L20.8482 20.8481" stroke="#CF6D12" stroke-width="2"/>
<path d="M10.8325 30.886L16.7848 32.5582" stroke="#CF6D12" stroke-width="4"/>
<line x1="16.1708" y1="31.6582" x2="16.1708" y2="39.3797" stroke="#CF6D12" stroke-width="3"/>
<path d="M5.40521 35.519L8.3547 29.3418" stroke="#CF6D12" stroke-width="4"/>
<line x1="6.6491" y1="35.2959" x2="0.710156" y2="38.4879" stroke="#CF6D12" stroke-width="3"/>
<line x1="22.981" y1="39.3798" x2="22.981" y2="1.52588e-05" stroke="#CF6D12" stroke-width="5"/>
<line x1="27.7381" y1="5.87451" x2="43.1811" y2="38.3049" stroke="#CF6D12" stroke-width="5"/>
<line x1="36.3694" y1="15.0852" x2="62.6225" y2="37.4776" stroke="#EFF2FF" stroke-opacity="0.54" stroke-width="5"/>
</svg>
