<svg width="123" height="40" viewBox="0 0 123 40" fill="none" xmlns="http://www.w3.org/2000/svg">
<path d="M77.3038 10.8101C77.3038 13.7952 74.8838 16.2152 71.8987 16.2152C68.9136 16.2152 66.4937 13.7952 66.4937 10.8101C66.4937 7.82496 68.9136 5.40503 71.8987 5.40503C74.8838 5.40503 77.3038 7.82496 77.3038 10.8101Z" fill="#FF9832"/>
<line x1="70.3273" y1="16.4014" x2="66.5163" y2="31.8445" stroke="#FF9832" stroke-width="8"/>
<path d="M68.8301 20.1318L74.9677 23.2047" stroke="#FF9832" stroke-width="3"/>
<path d="M74.2153 23.4166L78.8482 20.8481" stroke="#FF9832" stroke-width="2"/>
<path d="M68.8325 30.886L74.7848 32.5582" stroke="#FF9832" stroke-width="4"/>
<line x1="74.1709" y1="31.6582" x2="74.1709" y2="39.3797" stroke="#FF9832" stroke-width="3"/>
<path d="M63.4053 35.519L66.3548 29.3418" stroke="#FF9832" stroke-width="4"/>
<line x1="64.6491" y1="35.2959" x2="58.7102" y2="38.4879" stroke="#FF9832" stroke-width="3"/>
<line x1="80.981" y1="39.3798" x2="80.981" y2="1.52588e-05" stroke="#FF9832" stroke-width="5"/>
<line x1="85.7381" y1="5.87451" x2="101.181" y2="38.3049" stroke="#FF9832" stroke-width="5"/>
<line x1="94.3694" y1="15.0852" x2="120.623" y2="37.4776" stroke="#EFF2FF" stroke-opacity="0.54" stroke-width="5"/>
<path d="M5.488 24L3.08 16.16H3.024C3.03333 16.3467 3.04733 16.6267 3.066 17C3.08467 17.3733 3.10333 17.7747 3.122 18.204C3.14067 18.624 3.15 19.0067 3.15 19.352V24H1.26V14.004H4.144L6.51 21.648H6.552L9.058 14.004H11.942V24H9.968V19.268C9.968 18.9507 9.97267 18.5867 9.982 18.176C10.0007 17.7653 10.0147 17.378 10.024 17.014C10.0427 16.6407 10.0567 16.3607 10.066 16.174H10.01L7.434 24H5.488ZM22.643 20.164C22.643 20.7987 22.5544 21.3633 22.377 21.858C22.209 22.3527 21.9617 22.7727 21.635 23.118C21.3177 23.454 20.9304 23.7107 20.473 23.888C20.0157 24.056 19.4977 24.14 18.919 24.14C18.387 24.14 17.8924 24.056 17.435 23.888C16.987 23.7107 16.5997 23.454 16.273 23.118C15.9464 22.7727 15.6897 22.3527 15.503 21.858C15.3257 21.3633 15.237 20.7987 15.237 20.164C15.237 19.3147 15.3864 18.6007 15.685 18.022C15.9837 17.434 16.413 16.986 16.973 16.678C17.533 16.37 18.1957 16.216 18.961 16.216C19.6797 16.216 20.3144 16.37 20.865 16.678C21.4157 16.986 21.8497 17.434 22.167 18.022C22.4844 18.6007 22.643 19.3147 22.643 20.164ZM17.365 20.164C17.365 20.668 17.4164 21.0927 17.519 21.438C17.631 21.774 17.8037 22.0307 18.037 22.208C18.2704 22.376 18.5737 22.46 18.947 22.46C19.3204 22.46 19.619 22.376 19.843 22.208C20.0764 22.0307 20.2444 21.774 20.347 21.438C20.459 21.0927 20.515 20.668 20.515 20.164C20.515 19.66 20.459 19.24 20.347 18.904C20.2444 18.568 20.0764 18.316 19.843 18.148C19.6097 17.98 19.3064 17.896 18.933 17.896C18.3824 17.896 17.981 18.0873 17.729 18.47C17.4864 18.8433 17.365 19.408 17.365 20.164ZM24.4016 16.356H26.6836L28.1256 20.654C28.1722 20.794 28.2096 20.934 28.2376 21.074C28.2749 21.214 28.3029 21.3587 28.3216 21.508C28.3496 21.6573 28.3682 21.816 28.3776 21.984H28.4196C28.4476 21.7413 28.4849 21.5127 28.5316 21.298C28.5876 21.074 28.6482 20.8593 28.7136 20.654L30.1276 16.356H32.3676L29.1336 24.98C28.9376 25.5027 28.6809 25.9413 28.3636 26.296C28.0556 26.6507 27.6962 26.9167 27.2856 27.094C26.8749 27.2713 26.4269 27.36 25.9416 27.36C25.7082 27.36 25.5029 27.346 25.3256 27.318C25.1576 27.2993 25.0082 27.276 24.8776 27.248V25.596C24.9802 25.6147 25.1016 25.6333 25.2416 25.652C25.3909 25.6707 25.5449 25.68 25.7036 25.68C25.9929 25.68 26.2402 25.6193 26.4456 25.498C26.6602 25.3767 26.8376 25.2087 26.9776 24.994C27.1176 24.7887 27.2296 24.5647 27.3136 24.322L27.4396 23.944L24.4016 16.356ZM38.0143 16.216C38.7236 16.216 39.3303 16.3513 39.8343 16.622C40.3476 16.8927 40.7443 17.2847 41.0243 17.798C41.3043 18.3113 41.4443 18.9413 41.4443 19.688V20.696H36.5163C36.5349 21.284 36.7076 21.746 37.0343 22.082C37.3703 22.418 37.8323 22.586 38.4203 22.586C38.9149 22.586 39.3629 22.5393 39.7643 22.446C40.1656 22.3433 40.5809 22.1893 41.0103 21.984V23.594C40.6369 23.7807 40.2403 23.916 39.8203 24C39.4096 24.0933 38.9103 24.14 38.3223 24.14C37.5569 24.14 36.8803 24 36.2923 23.72C35.7043 23.4307 35.2423 22.9967 34.9063 22.418C34.5703 21.8393 34.4023 21.1113 34.4023 20.234C34.4023 19.338 34.5516 18.596 34.8503 18.008C35.1583 17.4107 35.5829 16.9627 36.1243 16.664C36.6656 16.3653 37.2956 16.216 38.0143 16.216ZM38.0283 17.7C37.6269 17.7 37.2909 17.8307 37.0203 18.092C36.7589 18.3533 36.6049 18.7593 36.5583 19.31H39.4843C39.4843 19.002 39.4283 18.7267 39.3163 18.484C39.2136 18.2413 39.0549 18.05 38.8403 17.91C38.6256 17.77 38.3549 17.7 38.0283 17.7ZM48.8757 16.216C49.6971 16.216 50.3551 16.44 50.8497 16.888C51.3444 17.3267 51.5917 18.036 51.5917 19.016V24H49.5057V19.534C49.5057 18.9833 49.4077 18.5727 49.2117 18.302C49.0157 18.022 48.7031 17.882 48.2737 17.882C47.6391 17.882 47.2051 18.1013 46.9717 18.54C46.7384 18.9693 46.6217 19.59 46.6217 20.402V24H44.5357V16.356H46.1317L46.4117 17.336H46.5237C46.6917 17.0747 46.8971 16.8647 47.1397 16.706C47.3824 16.538 47.6531 16.4167 47.9517 16.342C48.2504 16.258 48.5584 16.216 48.8757 16.216Z" fill="#FF9832"/>
</svg>
