<?xml version="1.0" encoding="UTF-8" standalone="no"?>
<svg
   width="491"
   height="491"
   viewBox="0 0 491 491"
   fill="none"
   version="1.1"
   id="svg16"
   sodipodi:docname="splashicon_gypse.svg"
   inkscape:version="1.1 (c68e22c387, 2021-05-23)"
   xmlns:inkscape="http://www.inkscape.org/namespaces/inkscape"
   xmlns:sodipodi="http://sodipodi.sourceforge.net/DTD/sodipodi-0.dtd"
   xmlns="http://www.w3.org/2000/svg"
   xmlns:svg="http://www.w3.org/2000/svg">
  <path
     d="M 277.45001,204.77254 H 249.29865 V 250.8384 Z"
     stroke="#0a2380"
     id="path4"
     style="stroke-width:5.11843;fill:#fdfdfd;fill-opacity:1" />
  <path
     d="m 272.91508,46.387853 c 42.92315,-0.286632 91.54823,15.068657 91.54823,15.068657 l -43.50665,71.65801 c 0,0 -39.15598,-9.90928 -60.83765,-2.27258 -20.17685,7.10438 -33.81235,17.90939 -44.04921,35.82389 -10.23686,17.9145 -11.40386,42.05814 -12.25352,66.5447 -1.01857,29.39003 15.35529,74.21723 15.35529,74.21723 l -56.30272,89.57252 c 0,0 -22.55692,-21.6919 -33.2698,-38.38822 C 121.38397,345.81087 104.86168,321.6314 98.345922,299.745 88.871709,267.90325 86.29202,256.1411 88.109063,222.96856 c 1.975714,-36.11564 11.301492,-66.78527 30.710577,-99.80938 15.05842,-25.617742 48.79399,-53.984079 76.77644,-63.980372 17.91451,-6.398037 34.39585,-12.504323 77.319,-12.790955 z"
     stroke="#0a2380"
     id="path6"
     style="fill:#fdfdfd;fill-opacity:1;stroke-width:5.11843" />
  <path
     d="m 391.29924,94.224696 -17.97592,-7.539447 -42.95898,71.985591 12.83702,5.02118 15.41159,7.55992 z"
     fill="#d97111"
     stroke="white"
     id="path8"
     style="stroke:none;stroke-width:5.11843" />
  <path
     d="m 406.64941,424.25592 -1.4997,-197.05442 -116.00921,0.88549 -37.07278,61.70266 0.11772,15.35529 58.85682,-0.45042 0.42995,56.30273 c 0,0 -20.43277,5.2771 -25.5512,5.31293 -5.11843,0.0409 -23.06364,1.14141 -35.86995,-4.84716 -12.17675,-5.69169 -25.76618,-22.83331 -25.76618,-22.83331 l -50.53937,84.83797 c 0,0 51.39927,27.76236 120.47248,24.67595 69.07832,-3.0813 112.43142,-23.88771 112.43142,-23.88771 z"
     fill="#d97111"
     id="path10"
     style="stroke-width:5.11843" />
  <path
     d="m 287.42583,228.09722 1.71467,-0.0102 m 0,0 116.00921,-0.88549 1.4997,197.05442 c 0,0 -43.3531,20.80641 -112.43142,23.88771 -69.07321,3.08641 -120.47248,-24.67595 -120.47248,-24.67595 l 50.53937,-84.83797 c 0,0 13.58943,17.14162 25.76618,22.83331 12.80631,5.98857 30.75152,4.8881 35.86995,4.84716 5.11843,-0.0358 25.5512,-5.31293 25.5512,-5.31293 l -0.42995,-56.30273 -58.85682,0.45042 -0.11772,-15.35529 z"
     stroke="white"
     id="path12"
     style="stroke:none;stroke-width:5.11843" />
  <path
     d="m 272.782,285.6642 -5.12355,10.1089 v 6.53111 h -5.77358 v -6.3622 l -5.14914,-10.27781 h 6.21889 l 1.8324,5.49207 1.85799,-5.49207 z m 6.36733,0 c 2.34936,0 4.01797,0.50672 5.01094,1.52017 1.01345,1.01345 1.52018,2.37495 1.52018,4.08451 0,0.73194 -0.11773,1.4434 -0.36341,2.1395 -0.22521,0.69611 -0.59374,1.32056 -1.10047,1.88359 -0.50672,0.54767 -1.16188,0.98785 -1.97059,1.32567 -0.80359,0.31734 -1.77098,0.47601 -2.89703,0.47601 H 278.53 v 5.21056 h -5.71217 V 285.6642 Z m 0.0563,7.31935 c 0.15355,0 0.31223,-0.13819 0.48113,-0.41971 0.16891,-0.30198 0.25081,-0.67563 0.25081,-1.12605 0,-0.4709 -0.0614,-0.86502 -0.1945,-1.18236 -0.13308,-0.31734 -0.33782,-0.48113 -0.61933,-0.48113 H 278.53 v 3.20925 z m 18.17043,4.08451 c 0,0.88037 -0.21498,1.74539 -0.64493,2.58993 -0.41459,0.84454 -1.10558,1.54064 -2.0832,2.0832 -0.95714,0.5272 -2.26234,0.78824 -3.91559,0.78824 -0.8036,0 -1.48947,-0.0358 -2.05249,-0.11261 -0.54256,-0.0563 -1.04928,-0.16891 -1.52018,-0.33782 -0.45042,-0.1689 -0.96738,-0.39412 -1.55088,-0.67563 v -4.70384 c 0.95714,0.50673 1.90917,0.90085 2.84584,1.18236 0.93668,0.26616 1.72491,0.39412 2.36472,0.39412 0.37364,0 0.59885,-0.0717 0.67563,-0.22521 0.0768,-0.14844 0.11261,-0.31734 0.11261,-0.50673 0,-0.18426 -0.0563,-0.34293 -0.16891,-0.47601 -0.0921,-0.14843 -0.31223,-0.32758 -0.65004,-0.53743 -0.33782,-0.20474 -0.84454,-0.46578 -1.52018,-0.78824 -0.80359,-0.39412 -1.47922,-0.8036 -2.02689,-1.23866 -0.52208,-0.45042 -0.92644,-0.99298 -1.20795,-1.63278 -0.26104,-0.63469 -0.39412,-1.4434 -0.39412,-2.42102 0,-1.10558 0.26104,-2.0269 0.78824,-2.75883 0.54255,-0.74729 1.3052,-1.31032 2.2777,-1.68908 0.97762,-0.37365 2.12415,-0.56303 3.43446,-0.56303 1.22331,0 2.28282,0.14331 3.18367,0.42483 0.90084,0.26104 1.64301,0.54255 2.2214,0.84454 l -1.68909,4.0538 c -0.67563,-0.33782 -1.35638,-0.6091 -2.05249,-0.81895 -0.6961,-0.20474 -1.3052,-0.30711 -1.83239,-0.30711 -0.35318,0 -0.56303,0.0665 -0.61933,0.1945 -0.0358,0.13308 -0.0563,0.26616 -0.0563,0.39412 0,0.13308 0.0665,0.2764 0.19962,0.42483 0.13308,0.14843 0.39412,0.34805 0.78824,0.58862 0.41459,0.22521 1.02369,0.54767 1.82728,0.95715 0.75241,0.37876 1.3615,0.78312 1.8324,1.21306 0.48625,0.42995 0.84454,0.93668 1.06975,1.52018 0.24568,0.5835 0.36341,1.29496 0.36341,2.1395 z m 0.53231,-11.40386 h 9.74038 v 4.08451 h -4.02821 v 2.10879 h 3.65968 v 4.0282 h -3.65968 v 2.33401 h 4.02821 v 4.0845 h -9.74038 z"
     fill="#eff2ff"
     id="path14"
     style="stroke-width:5.11843" />
  <defs
     id="defs20" />
  <sodipodi:namedview
     id="namedview18"
     pagecolor="#505050"
     bordercolor="#ffffff"
     borderopacity="1"
     inkscape:pageshadow="0"
     inkscape:pageopacity="0"
     inkscape:pagecheckerboard="1"
     showgrid="false"
     inkscape:zoom="1.0844224"
     inkscape:cx="180.74138"
     inkscape:cy="258.66304"
     inkscape:window-width="1920"
     inkscape:window-height="1051"
     inkscape:window-x="2391"
     inkscape:window-y="-9"
     inkscape:window-maximized="1"
     inkscape:current-layer="svg16" />
</svg>
